<svg xmlns="http://www.w3.org/2000/svg" viewBox="0 0 400 400" fill="none">
  <rect width="400" height="400" fill="#f3efe6"/>
  <g stroke="#141414" stroke-width="2.2" stroke-linecap="round" stroke-linejoin="round">
    <path d="M200 50 C200 50, 160 90, 160 140 C160 175, 180 195, 200 210 C220 195, 240 175, 240 140 C240 90, 200 50, 200 50 Z"/>
    <circle cx="200" cy="130" r="22"/>
    <path d="M178 152 L178 250 C178 290, 200 310, 200 310 C200 310, 222 290, 222 250 L222 152"/>
    <path d="M178 250 C160 270, 145 300, 150 330 C158 360, 190 365, 200 350"/>
    <path d="M222 250 C240 270, 255 300, 250 330 C242 360, 210 365, 200 350"/>
    <path d="M120 80 C140 70, 160 75, 175 90"/>
    <path d="M130 95 C145 88, 160 92, 170 105"/>
    <path d="M280 80 C260 70, 240 75, 225 90"/>
    <path d="M270 95 C255 88, 240 92, 230 105"/>
    <path d="M200 350 L200 380"/>
    <path d="M185 365 L215 365"/>
  </g>
</svg>
