<svg xmlns="http://www.w3.org/2000/svg" viewBox="0 0 400 400" fill="none">
  <rect width="400" height="400" fill="#f3efe6"/>
  <g stroke="#141414" stroke-width="2.2" stroke-linecap="round" stroke-linejoin="round">
    <path d="M80 200 C120 160, 180 140, 240 155 C300 170, 330 210, 310 250 C290 290, 230 310, 170 295 C110 280, 70 240, 80 200 Z"/>
    <path d="M310 250 C330 230, 350 220, 370 230 C385 240, 380 260, 365 270 C350 280, 330 275, 310 250"/>
    <circle cx="130" cy="195" r="8" fill="#141414"/>
    <path d="M150 220 C170 235, 200 240, 230 235"/>
    <path d="M200 170 C220 165, 245 170, 265 185"/>
    <path d="M120 250 C140 270, 170 280, 200 275"/>
    <path d="M240 275 C270 280, 300 270, 320 250"/>
    <path d="M60 280 C90 260, 120 270, 140 300"/>
    <path d="M140 300 C160 320, 190 330, 220 325"/>
    <path d="M220 325 C250 330, 280 320, 300 300"/>
    <path d="M300 300 C320 280, 340 270, 360 285"/>
    <path d="M100 320 C130 300, 165 305, 190 330"/>
    <path d="M210 330 C235 305, 270 300, 300 320"/>
  </g>
</svg>
