<svg xmlns="http://www.w3.org/2000/svg" viewBox="0 0 400 400" fill="none">
  <rect width="400" height="400" fill="#f3efe6"/>
  <g stroke="#141414" stroke-width="1.8" stroke-linecap="round">
    <circle cx="200" cy="200" r="140"/>
    <circle cx="200" cy="200" r="110"/>
    <circle cx="200" cy="200" r="80"/>
    <circle cx="200" cy="200" r="50"/>
    <circle cx="200" cy="200" r="20"/>
    <path d="M200 60 L200 340 M60 200 L340 200 M95 95 L305 305 M305 95 L95 305"/>
    <path d="M200 90 C230 120, 230 160, 200 190 C170 160, 170 120, 200 90"/>
    <path d="M200 210 C230 240, 230 280, 200 310 C170 280, 170 240, 200 210"/>
    <path d="M90 200 C120 230, 160 230, 190 200 C160 170, 120 170, 90 200"/>
    <path d="M210 200 C240 230, 280 230, 310 200 C280 170, 240 170, 210 200"/>
    <path d="M130 130 C155 155, 155 185, 130 210"/>
    <path d="M270 130 C245 155, 245 185, 270 210"/>
    <path d="M130 270 C155 245, 185 245, 210 270"/>
    <path d="M270 270 C245 245, 215 245, 190 270"/>
  </g>
</svg>
