<svg xmlns="http://www.w3.org/2000/svg" viewBox="0 0 400 400" fill="none">
  <rect width="400" height="400" fill="#f3efe6"/>
  <g stroke="#141414" stroke-width="2.2" stroke-linecap="round" stroke-linejoin="round">
    <path d="M80 280 C120 220, 160 200, 200 180 C240 160, 280 140, 320 120"/>
    <path d="M320 120 C340 100, 350 80, 340 60 C330 45, 310 50, 300 70"/>
    <path d="M300 70 C290 90, 270 100, 250 95 C230 90, 220 70, 230 55"/>
    <ellipse cx="235" cy="58" rx="4" ry="6" fill="#141414"/>
    <path d="M80 280 C60 300, 55 330, 70 350 C90 370, 120 360, 140 340"/>
    <path d="M140 340 C160 320, 170 290, 165 260"/>
    <path d="M120 250 C100 230, 95 200, 110 175 C130 145, 165 130, 195 135"/>
    <path d="M150 200 C145 185, 155 170, 170 168 C185 166, 195 180, 188 195"/>
    <path d="M175 195 C170 210, 180 225, 195 228 C210 231, 220 218, 215 202"/>
    <path d="M100 310 C115 295, 135 290, 150 300"/>
    <path d="M250 160 C270 150, 295 155, 310 170"/>
    <path d="M180 320 C200 305, 225 300, 245 310 C265 320, 275 345, 265 365"/>
    <circle cx="200" cy="240" r="28" stroke-width="1.8"/>
    <path d="M188 240 C192 225, 208 225, 212 240 C208 255, 192 255, 188 240 Z" stroke-width="1.5"/>
    <path d="M200 212 L200 268 M172 240 L228 240" stroke-width="1.2"/>
    <path d="M155 285 C165 275, 180 272, 192 280"/>
    <path d="M208 280 C220 272, 235 275, 245 285"/>
  </g>
</svg>
