<svg xmlns="http://www.w3.org/2000/svg" viewBox="0 0 400 400" fill="none">
  <rect width="400" height="400" fill="#f3efe6"/>
  <g stroke="#141414" stroke-width="2.2" stroke-linecap="round" stroke-linejoin="round">
    <ellipse cx="200" cy="175" rx="70" ry="80"/>
    <circle cx="175" cy="165" r="18"/>
    <circle cx="225" cy="165" r="18"/>
    <path d="M175 183 C185 195, 195 200, 200 200 C205 200, 215 195, 225 183"/>
    <path d="M190 220 L190 250 M210 220 L210 250"/>
    <path d="M175 250 L225 250 L215 275 L185 275 Z"/>
    <path d="M130 280 C150 260, 175 255, 200 265"/>
    <path d="M270 280 C250 260, 225 255, 200 265"/>
    <path d="M100 300 C120 285, 145 290, 155 310 C130 320, 110 315, 100 300"/>
    <path d="M300 300 C280 285, 255 290, 245 310 C270 320, 290 315, 300 300"/>
    <path d="M155 310 C165 330, 180 340, 200 345 C220 340, 235 330, 245 310"/>
    <circle cx="120" cy="305" r="12"/>
    <circle cx="280" cy="305" r="12"/>
    <path d="M120 317 L120 350 M114 335 L126 335"/>
    <path d="M280 317 L280 350 M274 335 L286 335"/>
  </g>
</svg>
