<svg xmlns="http://www.w3.org/2000/svg" viewBox="0 0 400 400" fill="none">
  <rect width="400" height="400" fill="#f3efe6"/>
  <g stroke="#141414" stroke-width="2.2" stroke-linecap="round" stroke-linejoin="round">
    <path d="M40 300 C80 260, 120 280, 160 250 C200 220, 240 260, 280 230 C320 200, 360 240, 400 210"/>
    <path d="M40 330 C80 290, 120 310, 160 280 C200 250, 240 290, 280 260 C320 230, 360 270, 400 240"/>
    <path d="M40 360 C80 320, 120 340, 160 310 C200 280, 240 320, 280 290 C320 260, 360 300, 400 270"/>
    <path d="M200 80 L200 200 M170 110 L230 110 M185 140 L215 140"/>
    <path d="M200 200 L170 250 L230 250 Z"/>
    <rect x="188" y="60" width="24" height="20" rx="2"/>
    <path d="M160 250 C175 235, 195 230, 200 200"/>
    <path d="M240 250 C225 235, 205 230, 200 200"/>
    <circle cx="200" cy="95" r="8"/>
    <path d="M120 180 C140 160, 165 155, 185 165"/>
    <path d="M280 180 C260 160, 235 155, 215 165"/>
  </g>
</svg>
